<svg width="529" height="393" viewBox="0 0 529 393" fill="none" xmlns="http://www.w3.org/2000/svg">
<g clip-path="url(#clip0)">
<path opacity="0.1" d="M520.731 212.549C520.636 213.007 520.541 213.466 520.436 213.925C517.047 229.549 511.513 244.612 503.286 258.441C503.016 258.9 502.741 259.359 502.461 259.818C497.181 268.538 490.697 276.733 483.136 284.241C479.037 288.292 474.569 292.139 469.255 294.916C461.807 298.808 453.1 300.389 444.542 301.684C435.65 303.032 426.642 304.142 417.655 305.371C414.469 305.797 411.303 306.243 408.158 306.71C399.475 307.996 390.858 309.484 382.445 311.454C372.043 313.912 361.951 317.078 352.453 321.564C351.694 321.919 350.942 322.284 350.199 322.658C349.454 323.026 348.7 323.403 347.975 323.788C347.25 324.173 346.52 324.554 345.8 324.944L344.691 325.558C344.326 325.755 343.966 325.968 343.606 326.164C342.536 326.762 341.482 327.393 340.427 328L340.387 328.024C339.692 328.434 339.002 328.843 338.313 329.253C334.419 331.617 330.61 334.091 326.816 336.573L324.421 338.142C323.185 338.945 321.949 339.747 320.713 340.547C319.988 341.018 319.253 341.485 318.523 341.952C317.993 342.292 317.468 342.632 316.929 342.968C314.224 344.676 311.485 346.348 308.691 347.945C308.026 348.326 307.351 348.707 306.692 349.08C301.098 352.215 295.149 354.901 288.927 357.101L288.847 357.13C285.782 358.2 282.628 359.091 279.409 359.796C277.565 360.206 275.72 360.53 273.851 360.784C268.871 361.49 263.787 361.561 258.78 360.997C248.938 359.854 239.716 356.081 229.898 354.819C209.644 352.242 189.975 360.554 170.915 367.08C166.25 368.68 161.533 370.182 156.764 371.586C153.605 372.52 150.431 373.409 147.242 374.253C127.813 379.403 107.793 382.913 87.4939 384.728C79.2063 385.469 70.5637 385.821 62.1261 385.289C58.9398 385.097 55.7691 384.759 52.6288 384.277C41.9469 382.638 31.9747 379.16 23.942 372.807C17.2689 367.608 12.5602 360.812 8.97125 353.721C7.52833 350.873 6.25702 347.959 5.15734 344.979C3.42883 340.31 2.13056 335.54 1.27344 330.711C1.0785 329.622 0.903549 328.528 0.773586 327.434C0.51366 325.558 0.320379 323.674 0.193749 321.781C-0.506112 311.723 0.692664 301.636 3.74774 291.877C7.15177 281.066 12.8302 270.714 15.3294 259.801C15.4344 259.343 15.5294 258.884 15.6244 258.425C15.9576 256.786 16.2109 255.118 16.3841 253.419C17.6438 240.073 12.7702 227.009 8.92127 213.925C8.78631 213.466 8.65134 213.007 8.52138 212.549C8.10483 211.098 7.70994 209.647 7.33672 208.194C3.77273 194.356 2.79801 179.547 5.96211 165.738C6.06208 165.279 6.17705 164.817 6.29202 164.362C8.42641 155.808 12.1953 147.673 17.9687 140.426C23.892 132.987 31.6698 126.797 39.9624 121.357C44.0113 118.708 48.1984 116.23 52.5239 113.922C55.633 112.267 58.7987 110.701 62.0212 109.223C88.0587 97.3435 117.765 91.5388 147.137 92.8374C148.693 92.9029 150.246 92.9903 151.796 93.0996C153.422 93.2143 155.043 93.3508 156.659 93.5092C175.569 95.2994 193.969 99.7358 212.258 104.59C218.387 106.229 224.5 107.867 230.613 109.506C233.332 110.232 236.05 110.949 238.766 111.657C252.087 115.102 265.628 118.211 279.294 120.554C282.463 121.1 285.629 121.599 288.792 122.049C299.786 123.663 310.912 124.603 322.077 124.86C326.409 124.947 330.741 124.91 335.073 124.749C337.263 124.667 339.454 124.547 341.647 124.388C364.295 122.799 386.134 117.469 408.063 112.464C411.232 111.739 414.406 111.018 417.56 110.321C421.729 109.404 425.903 108.515 430.091 107.695C456.174 102.562 479.417 105.512 503.665 116.097C509.164 118.502 514.662 121.402 518.061 125.892C521.46 130.382 522.285 135.94 522.915 141.29C523.805 148.902 524.415 156.619 524.609 164.37C524.609 164.829 524.61 165.288 524.644 165.746C525.084 181.44 523.92 197.252 520.731 212.549Z" fill="white"/>
<path d="M347.887 257.906H346.184V258.515V259.279H348.112L347.887 257.906ZM328.585 257.906C328.582 257.917 328.582 257.928 328.585 257.939L328.435 259.075V259.177V259.279H343.218V259.197L344.271 257.906H328.585ZM289.056 257.906V213.49H306.036C305.857 213.367 305.672 213.245 305.482 213.13L305.232 212.975C305.127 212.905 305.023 212.84 304.913 212.779C304.803 212.717 304.543 212.562 304.348 212.456C304.154 212.349 304.034 212.28 303.849 212.194L303.734 212.133H303.709H289.056V209.701L288.662 209.856L288.242 210.048H288.212L288.122 210.093L287.863 210.232C287.773 210.277 287.683 210.322 287.598 210.371C287.338 210.514 287.099 210.67 286.824 210.829L286.574 210.992C286.405 211.099 286.245 211.209 286.075 211.319C285.411 211.765 284.756 212.231 284.077 212.66C283.907 212.77 283.738 212.877 283.578 212.979C283.215 213.196 282.838 213.398 282.449 213.584C282.288 213.666 282.121 213.741 281.95 213.809L281.67 213.915L281.415 214.005C280.816 214.212 280.194 214.373 279.558 214.487V257.906H254.088C254.088 257.955 254.123 258 254.138 258.049C254.277 258.458 254.417 258.866 254.552 259.275H279.563V306.887H279.952L280.397 306.912L281.206 306.961L282.514 307.067L283.103 307.124L283.753 307.19H283.848C284.222 307.231 284.602 307.28 284.986 307.329L285.231 307.362L285.78 307.435L286.569 307.55L288.462 307.468L288.722 307.513C288.827 307.513 288.932 307.545 289.041 307.566V259.279H328.4V259.177V259.075L328.55 257.939C328.547 257.928 328.547 257.917 328.55 257.906H289.056ZM347.887 257.906H346.184V258.515V259.279H348.112L347.887 257.906ZM327.521 257.906L327.351 259.279H343.797L344.916 257.906H327.521ZM289.066 257.906V213.49H306.046C305.867 213.367 305.682 213.245 305.492 213.13L305.242 212.975C305.137 212.905 305.033 212.84 304.923 212.779C304.813 212.717 304.553 212.562 304.358 212.456C304.164 212.349 304.044 212.28 303.859 212.194L303.744 212.133H303.709H289.056V209.701L288.662 209.856L288.242 210.048H288.212L288.122 210.093L287.863 210.232C287.773 210.277 287.683 210.322 287.598 210.371C287.338 210.514 287.099 210.67 286.824 210.829L286.574 210.992C286.405 211.099 286.245 211.209 286.075 211.319C285.411 211.765 284.756 212.231 284.077 212.66C283.907 212.77 283.738 212.877 283.578 212.979C283.215 213.196 282.838 213.398 282.449 213.584C282.288 213.666 282.121 213.741 281.95 213.809L281.67 213.915L281.415 214.005C280.816 214.212 280.194 214.373 279.558 214.487V257.906H254.088C254.088 257.955 254.123 258 254.138 258.049C254.277 258.458 254.422 258.866 254.557 259.275H279.563V306.883L279.952 306.904L280.397 306.928L281.206 306.977L282.514 307.084L283.103 307.141L283.753 307.206H283.848C284.222 307.247 284.602 307.296 284.986 307.345L285.231 307.378L285.78 307.451L286.569 307.566L288.462 307.484L288.722 307.529C288.827 307.529 288.932 307.562 289.041 307.582V259.279H327.351L327.531 257.906H289.066ZM417.745 165.412H524.734C524.734 164.954 524.734 164.496 524.699 164.038H417.745V110.111C414.569 110.806 411.397 111.525 408.256 112.249V164.038H291.893L291.598 163.777L292.043 163.368L335.322 124.494C330.994 124.658 326.665 124.694 322.337 124.604L289.056 154.482V121.813C285.88 121.363 282.717 120.866 279.568 120.321V152.978L230.91 109.298C224.802 107.663 218.694 105.999 212.571 104.393L278.709 163.777L278.414 164.038H157.022V93.3288C155.404 93.179 153.784 93.0427 152.163 92.9201C150.614 92.8084 149.063 92.7212 147.508 92.6585V164.038H62.4682V109.024C59.242 110.495 56.079 112.058 52.9794 113.712V164.038H6.72881C6.61394 164.492 6.49908 164.954 6.39919 165.412H52.9394V212.116H8.97616C9.10601 212.574 9.24085 213.032 9.37569 213.49H52.9594V257.906H16.0578C15.9629 258.364 15.868 258.821 15.7632 259.279H52.9594V383.47C56.0969 383.951 59.2647 384.288 62.4482 384.48V259.279H147.508V373.469C150.698 372.621 153.869 371.734 157.022 370.808V259.279H279.548V359.049C282.763 358.345 285.914 357.456 288.976 356.388L289.056 356.359V259.279H408.226V306.066C411.386 305.6 414.549 305.154 417.715 304.729V259.279H502.45C502.73 258.821 503.005 258.364 503.274 257.906H417.745V213.49H520.439C520.544 213.032 520.639 212.574 520.734 212.116H417.745V165.412ZM62.4732 165.412H147.508V212.116H62.4682L62.4732 165.412ZM62.4732 257.906V213.49H147.508V257.906H62.4732ZM157.027 165.412H279.548V212.116H157.022L157.027 165.412ZM157.027 257.906V213.49H279.548V257.906H157.027ZM408.231 257.906H289.056V213.49H408.226L408.231 257.906ZM408.231 212.129H289.056V166.662L290.729 165.412H408.226L408.231 212.129ZM328.59 257.906C328.587 257.917 328.587 257.928 328.59 257.939L328.44 259.075V259.177V259.279H343.223V259.197L344.276 257.906H328.59ZM347.892 257.906H346.189V258.515V259.279H348.117L347.892 257.906ZM289.061 257.906V213.49H306.041C305.862 213.367 305.677 213.245 305.487 213.13L305.237 212.975C305.132 212.905 305.028 212.84 304.918 212.779C304.808 212.717 304.548 212.562 304.353 212.456C304.159 212.349 304.039 212.28 303.854 212.194L303.739 212.133H303.714H289.056V209.701L288.662 209.856L288.242 210.048H288.212L288.122 210.093L287.863 210.232C287.773 210.277 287.683 210.322 287.598 210.371C287.338 210.514 287.099 210.67 286.824 210.829L286.574 210.992C286.405 211.099 286.245 211.209 286.075 211.319C285.411 211.765 284.756 212.231 284.077 212.66C283.907 212.77 283.738 212.877 283.578 212.979C283.215 213.196 282.838 213.398 282.449 213.584C282.288 213.666 282.121 213.741 281.95 213.809L281.67 213.915L281.415 214.005C280.816 214.212 280.194 214.373 279.558 214.487V257.906H254.088C254.088 257.955 254.123 258 254.138 258.049C254.277 258.458 254.417 258.866 254.552 259.275H279.563V306.887H279.952L280.397 306.912L281.206 306.961L282.514 307.067L283.103 307.124L283.753 307.19H283.848C284.222 307.231 284.602 307.28 284.986 307.329L285.231 307.362L285.78 307.435L286.569 307.55L288.462 307.468L288.722 307.513C288.827 307.513 288.932 307.545 289.041 307.566V259.279H328.4V259.177V259.075L328.55 257.939C328.547 257.928 328.547 257.917 328.55 257.906H289.061Z" fill="white"/>
<path opacity="0.1" d="M342.282 149.845H343.017C342.758 149.724 342.541 149.552 342.384 149.346C342.228 149.14 342.136 148.905 342.119 148.664V148.664C342.119 147.735 343.528 146.976 345.249 146.976H367.15C368.871 146.976 370.28 147.735 370.28 148.664C370.28 149.596 368.871 150.356 367.15 150.356H366.421C366.678 150.478 366.894 150.65 367.05 150.856C367.205 151.062 367.296 151.296 367.314 151.537C367.314 152.341 366.292 152.996 364.923 153.177H371.228C372.944 153.177 374.353 153.941 374.353 154.869C374.353 155.797 372.944 156.561 371.228 156.561H349.331C347.615 156.561 346.206 155.801 346.206 154.869C346.206 154.065 347.228 153.406 348.597 153.229H342.282C340.566 153.229 339.157 152.466 339.157 151.537C339.157 150.609 340.576 149.845 342.282 149.845Z" fill="#B433FF"/>
<path opacity="0.1" d="M69.0812 184.256H69.8204C69.5615 184.104 69.344 183.891 69.1872 183.636C69.0304 183.381 68.9391 183.091 68.9214 182.792V182.792C68.9214 181.642 70.3349 180.696 72.068 180.696H94.1195C95.8526 180.696 97.2711 181.642 97.2711 182.792C97.2711 183.947 95.8526 184.888 94.1195 184.888H93.3852C93.6442 185.039 93.8617 185.252 94.0185 185.508C94.1753 185.763 94.2666 186.053 94.2843 186.352C94.2843 187.347 93.2554 188.159 91.8769 188.383H98.2251C99.9582 188.383 101.372 189.324 101.372 190.479C101.372 191.634 99.9582 192.575 98.2251 192.575H76.1686C74.4405 192.575 73.022 191.629 73.022 190.479C73.022 189.483 74.0559 188.666 75.4294 188.442H69.0812C67.3531 188.442 65.9346 187.502 65.9346 186.352C65.9346 185.202 67.3531 184.256 69.0812 184.256Z" fill="#B433FF"/>
<path d="M324.226 337.618C323.003 338.429 321.78 339.238 320.556 340.046C319.839 340.521 319.112 340.993 318.39 341.464C317.866 341.808 317.347 342.151 316.813 342.49C314.137 344.215 311.427 345.902 308.663 347.516C308.005 347.9 307.338 348.285 306.685 348.661C301.151 351.827 295.265 354.539 289.109 356.76L289.03 356.789V337.618H324.226Z" fill="#65617D"/>
<path d="M380.191 263.371L380.752 249.133C380.416 248.919 380.076 248.721 379.75 248.523C379.889 244.278 379.594 240.031 378.869 235.827C376.605 221.589 361.904 221.28 357.757 224.218C357.208 224.608 356.608 224.948 355.969 225.232C356.345 223.2 356.811 221.165 357.146 219.154C358.959 208.307 356.144 196.105 345.917 189.096C341.634 186.166 336.4 184.365 331.697 181.913C323.273 177.541 316.616 171.083 308.096 166.826C299.577 162.569 287.611 160.975 280.178 166.447C277.298 168.565 275.44 171.504 272.485 173.548C266.975 177.355 258.385 177.607 253.577 181.859C253.337 182.074 253.106 182.292 252.886 182.523C248.879 186.751 249.976 192.747 251.253 197.993C252.791 204.306 252.155 209.366 258.736 211.18C258.761 211.431 258.781 211.682 258.816 211.93C259.351 215.803 260.909 219.532 263.38 222.858C265.851 226.184 269.176 229.025 273.121 231.183L272.054 231.496C269.209 232.32 266.65 233.119 265.012 233.668C259.001 235.683 246.349 238.308 246.349 238.308C246.349 238.308 246.049 241.275 246.104 245.651C241.887 249.422 234.85 256.048 232.781 259.975C229.776 265.703 212.796 282.109 208.274 284.586C203.751 287.062 198.847 290 198.847 290C198.847 290 191.685 293.252 188.294 293.561C185.945 293.775 178.677 292.63 178.677 292.63C178.677 292.63 149.652 263.371 151.535 285.822C153.419 308.273 176.604 309.035 176.604 309.035L199.979 308.726C199.979 308.726 212.611 310.119 218.266 306.253C223.094 302.957 248.118 284.87 256.156 276.665C256.342 276.834 256.527 276.999 256.722 277.16C256.722 277.16 259.923 273.756 260.304 277.16C260.684 280.563 258.225 282.105 259.547 283.341C260.87 284.577 264.826 288.912 265.012 290.614C265.197 292.316 259.738 299.268 268.969 304.543C269.114 304.625 269.269 304.704 269.439 304.782C271.087 307.869 276.326 310.889 276.326 310.889L304.6 310.58L357.948 313.984C357.948 313.984 359.535 312.834 361.684 310.955C364.554 313.123 368.536 314.981 373.024 313.84C373.024 313.84 379.435 307.498 379.625 303.319C379.625 303.319 375.478 294.496 373.615 291.867C371.752 289.238 374.937 283.51 374.937 283.51C374.937 283.51 377.196 277.938 378.518 277.938C379.84 277.938 378.894 274.23 378.894 274.23C378.394 273.623 378.081 272.926 377.983 272.198C377.884 271.47 378.002 270.733 378.328 270.051C379.435 267.706 380.191 263.371 380.191 263.371Z" fill="url(#paint0_linear)"/>
<path d="M347.69 259.708L345.681 261.592L337.567 269.168L326.967 269.683L310.001 270.52C310.001 270.52 287.124 248.42 291.422 243.61C292.984 241.875 293.24 239.584 292.929 237.423C292.889 237.125 292.833 236.827 292.768 236.533C292.254 234.246 291.355 232.025 290.097 229.931L290.659 229.726L291.021 229.593L311.025 222.275L315.976 220.463C316.222 221.557 316.68 222.614 317.332 223.595C317.427 223.748 317.532 223.901 317.643 224.046C324.467 233.103 346.349 227.375 346.349 227.375L347.69 259.708Z" fill="#EE8E9E"/>
<path d="M377.543 248.356C377.391 253.939 376.265 256.349 376.265 256.349L347.662 259.87L346.592 253.869L342.357 230.174L346.334 226.96C347.922 227.237 349.568 227.216 351.145 226.897C352.722 226.579 354.187 225.972 355.428 225.124C359.593 222.214 374.368 222.521 376.641 236.601C377.308 240.495 377.61 244.425 377.543 248.356V248.356Z" fill="#EE8E9E"/>
<path d="M371.021 313.837C371.021 313.837 377.363 307.537 377.552 303.39L371.206 294.629L365.609 289.691L355.155 306.307C355.155 306.307 362.061 316.142 371.021 313.837Z" fill="#DFE5EE"/>
<path opacity="0.1" d="M371.021 313.837C371.021 313.837 377.363 307.537 377.552 303.39L371.206 294.629L365.609 289.691L355.155 306.307C355.155 306.307 362.061 316.142 371.021 313.837Z" fill="black"/>
<path d="M317.827 341.259C317.298 341.594 316.775 341.928 316.237 342.258C313.54 343.938 310.809 345.582 308.023 347.152C307.36 347.527 306.687 347.902 306.03 348.268H278.812H156.536H147.042L100.003 346.907L62.1748 346.649L52.7053 346.246L5.45739 344.232C3.72648 339.637 2.42532 334.943 1.56493 330.19C1.37055 329.118 1.19611 328.043 1.06653 326.967L52.6853 329.28L62.1548 329.711L147.022 333.537L156.516 333.964L278.792 339.483L288.202 339.91H288.282L317.827 341.259Z" fill="#D48A9B"/>
<path d="M381.819 311.477C371.427 313.931 361.346 317.093 351.859 321.571C351.105 321.927 350.361 322.291 349.607 322.664C348.853 323.036 348.109 323.408 347.385 323.792C346.661 324.177 345.932 324.557 345.213 324.946L344.104 325.559L343.021 326.165C341.952 326.766 340.898 327.392 339.845 327.997L339.805 328.022C339.111 328.431 338.422 328.84 337.733 329.249C333.843 331.609 330.038 334.079 326.248 336.558C325.449 337.082 324.648 337.604 323.846 338.125L320.151 340.526C319.427 340.996 318.693 341.462 317.964 341.929C317.435 342.268 316.91 342.608 316.371 342.943L288.409 341.851H288.329L278.901 341.491L156.341 336.734L146.828 336.362L61.8022 333.053L52.3149 332.681L1.07856 330.705C0.883818 329.617 0.709052 328.525 0.579226 327.433C0.319574 325.559 0.126497 323.678 0 321.788L52.3099 306.654L61.7972 303.902L70.4157 301.406L86.1196 302.077L122.416 303.603L146.843 304.654L156.356 305.063L162.432 305.325L163.885 305.39L215.027 307.579L215.566 307.607L238.386 308.581H238.645H238.795L241.077 308.675L248.857 309.01L258.584 309.419L261.789 309.558L262.394 309.587L266.927 309.779L268.221 309.832L272.55 310.021L274.273 310.098H274.328H274.687L278.737 310.274L285.008 310.544H285.038L286.986 310.626H287.195L288.359 310.679L291.215 310.802L293.712 310.908H293.737L296.538 311.027H296.583L298.705 311.121L300.333 311.19L306.11 311.44L307.149 311.485H307.508L308.007 311.509L309.7 311.583L310.459 311.616L316.351 311.865H316.891L325.589 311.804H325.649L358.72 311.583H359.354H360.023H361.99L372.636 311.514H374.224L381.819 311.477Z" fill="#EFC6CD"/>
<path d="M158.66 311.344L161.732 324.837L245.251 323.8C245.251 323.8 251.535 325.299 251.395 321.148C251.395 321.148 264.107 311.228 328.492 322.762L303.772 306.732L236.2 309.729L157.847 308L158.66 311.344Z" fill="#F69809"/>
<path d="M159.98 308.518L162.924 322.707C162.924 322.707 235.032 321.032 246.369 322.596L237.801 309.635C237.801 309.635 194.201 306.395 159.98 308.518Z" fill="white"/>
<path opacity="0.1" d="M159.98 308.518L162.924 322.707C162.924 322.707 235.032 321.032 246.369 322.596L237.801 309.635C237.801 309.635 194.201 306.395 159.98 308.518Z" fill="black"/>
<path d="M161.046 308.466L163.951 321.642C163.951 321.642 235.151 320.089 246.369 321.539L237.92 309.506C237.92 309.506 194.841 306.495 161.046 308.466Z" fill="#D3D3D3"/>
<path opacity="0.1" d="M163.179 308.474L166 321.642C166 321.642 235.412 320.089 246.369 321.54L238.132 309.508C238.132 309.508 196.131 306.486 163.179 308.474Z" fill="black"/>
<path d="M163.179 308.413L166.014 320.577C166.014 320.577 235.414 319.145 246.369 320.483L238.114 309.378C238.114 309.378 196.125 306.596 163.179 308.413Z" fill="#EAEAEA"/>
<path d="M114.203 249.975C114.203 249.975 117.839 254.71 112.53 261.864C107.22 269.018 102.835 275.052 104.608 279.512C104.608 279.512 112.6 266.23 119.143 266.071C125.686 265.911 121.38 257.961 114.203 249.975Z" fill="#F79809"/>
<path opacity="0.1" d="M114.203 249.975C114.523 250.435 114.773 250.938 114.947 251.469C121.31 258.937 124.702 265.906 118.583 266.056C112.884 266.215 106.052 276.371 104.413 278.94C104.47 279.132 104.535 279.326 104.608 279.522C104.608 279.522 112.6 266.24 119.143 266.081C125.686 265.921 121.38 257.961 114.203 249.975Z" fill="black"/>
<path d="M120.961 256.014C120.961 257.677 120.771 259.031 120.541 259.031C120.311 259.031 120.122 257.677 120.122 256.014C120.122 254.352 120.356 255.128 120.586 255.128C120.816 255.128 120.961 254.347 120.961 256.014Z" fill="#FFD037"/>
<path d="M123.278 258.001C121.81 258.802 120.531 259.285 120.421 259.081C120.311 258.877 121.42 258.085 122.879 257.269C124.337 256.452 123.768 257.05 123.878 257.269C123.988 257.488 124.747 257.204 123.278 258.001Z" fill="#FFD037"/>
<path d="M95.0085 249.975C95.0085 249.975 91.3724 254.71 96.6867 261.864C102.001 269.018 106.376 275.052 104.608 279.512C104.608 279.512 96.5918 266.23 90.0688 266.071C83.5458 265.911 87.8312 257.961 95.0085 249.975Z" fill="#F69809"/>
<path opacity="0.1" d="M95.0085 249.975C94.6916 250.436 94.4411 250.939 94.2643 251.469C87.9011 258.937 84.5097 265.906 90.6282 266.056C96.3271 266.215 103.165 276.371 104.803 278.94C104.75 279.132 104.685 279.326 104.608 279.522C104.608 279.522 96.5918 266.24 90.0688 266.081C83.5458 265.921 87.8312 257.961 95.0085 249.975Z" fill="black"/>
<path d="M88.2507 256.014C88.2507 257.677 88.4405 259.031 88.6703 259.031C88.9 259.031 89.0898 257.677 89.0898 256.014C89.0898 254.352 88.8551 255.128 88.6253 255.128C88.3956 255.128 88.2507 254.347 88.2507 256.014Z" fill="#FFD037"/>
<path d="M85.9332 258.001C87.4017 258.802 88.6853 259.285 88.7952 259.081C88.9051 258.877 87.7962 258.085 86.3378 257.269C84.8793 256.452 85.4487 257.05 85.3388 257.269C85.229 257.488 84.4648 257.204 85.9332 258.001Z" fill="#FFD037"/>
<path d="M124.147 273.125L123.968 274.619L123.713 276.705L123.608 277.576L123.353 279.667L123.243 280.538L122.984 282.629L120.077 306.386C119.817 308.507 116.341 310.159 112.145 310.159H97.0513C92.8558 310.159 89.3845 308.507 89.1248 306.386L86.2129 282.629L85.9582 280.538L85.8533 279.667L85.5936 277.576L85.4887 276.705L85.234 274.619L85.0492 273.125C84.9043 271.925 86.7823 270.915 89.1598 270.915H120.057C122.429 270.915 124.312 271.925 124.147 273.125Z" fill="#65617D"/>
<path d="M123.983 274.604L123.728 276.695H85.4887L85.234 274.604H123.983Z" fill="#9D9CB5"/>
<path d="M123.623 277.566L123.368 279.657H85.8533L85.5936 277.566H123.623Z" fill="#9D9CB5"/>
<path d="M123.258 280.528L123.004 282.614H86.2129L85.9582 280.528H123.258Z" fill="#9D9CB5"/>
<path d="M170.645 291.287C170.645 291.287 160.672 284.043 161.057 293.459C161.442 302.875 170.645 291.287 170.645 291.287Z" fill="#EE8E9E"/>
<path d="M256.922 273.928C256.709 274.693 255.67 275.961 254.05 277.551C245.683 285.798 221.879 302.937 217.214 306.117C211.649 309.915 199.218 308.557 199.218 308.557L176.213 308.862C176.213 308.862 153.393 308.101 151.534 286.09C149.676 264.079 178.25 292.771 178.25 292.771C178.25 292.771 185.405 293.894 187.715 293.682C191.054 293.381 198.105 290.193 198.105 290.193C198.105 290.193 202.929 287.306 207.381 284.879C211.833 282.451 228.532 266.353 231.503 260.733C233.386 257.167 239.453 251.336 243.641 247.554C246.046 245.379 247.83 243.894 247.83 243.894C247.83 243.894 258.219 269.219 256.922 273.928Z" fill="#EE8E9E"/>
<path opacity="0.1" d="M256.927 274.309C256.723 275.082 255.731 276.366 254.183 277.976C246.111 270.852 244.426 256.636 244.236 247.598C246.534 245.397 248.238 243.894 248.238 243.894C248.238 243.894 258.166 269.543 256.927 274.309Z" fill="black"/>
<path opacity="0.1" d="M345.541 261.459L337.452 269.148L326.878 269.671L309.952 270.52C309.952 270.52 287.131 248.091 291.419 243.209C292.977 241.448 293.232 239.124 292.922 236.93C292.882 236.628 292.827 236.325 292.762 236.027C292.249 233.706 291.352 231.452 290.097 229.327L290.658 229.119L291.018 228.984C291.909 231.007 292.524 233.105 292.852 235.239C292.907 235.529 292.957 235.831 293.007 236.141C293.182 237.244 293.343 238.47 293.508 239.818C294.81 252.164 304.332 256.81 308.63 258.289C310.012 258.764 311.363 259.297 312.677 259.886C316.812 261.746 321.58 262.449 326.252 261.888C336.861 260.752 345.511 254.465 345.511 254.465L345.556 260.654L345.541 261.459Z" fill="black"/>
<path d="M346.623 309.927C346.623 309.927 277.131 309.77 267.971 304.543C258.811 299.315 264.239 292.39 264.049 290.697C263.859 289.004 259.942 284.699 258.636 283.463C257.331 282.228 259.757 280.695 259.382 277.313C259.006 273.931 255.835 277.313 255.835 277.313C242.753 266.388 245.554 238.701 245.554 238.701C245.554 238.701 258.061 236.09 264.064 234.084C265.69 233.54 268.221 232.765 271.068 231.929L272.123 231.616C279.462 229.453 288.187 227.01 288.187 227.01C288.187 227.01 289.863 226.034 291.549 228.955C292.319 230.298 293.095 232.46 293.715 235.917C293.77 236.209 293.82 236.514 293.87 236.827C294.045 237.939 294.205 239.175 294.37 240.535C295.671 252.984 305.181 257.667 309.473 259.159C310.853 259.638 312.203 260.176 313.515 260.769C317.645 262.645 322.407 263.354 327.073 262.788C337.668 261.643 346.308 255.303 346.308 255.303L346.353 261.544L346.483 280.296L346.623 309.927Z" fill="#DFE5EE"/>
<path d="M342.833 285.453L341.721 291.387C341.721 291.387 314.272 297.163 303.52 298.881C292.768 300.6 269.581 298.413 267.912 302.16C266.243 305.907 274.959 311.063 274.959 311.063L302.77 310.749L355.254 314.187C355.254 314.187 375.283 299.35 368.792 289.041C362.301 278.733 342.833 285.453 342.833 285.453Z" fill="#EE8E9E"/>
<path opacity="0.1" d="M285.831 239.634C285.831 239.634 273.027 248.516 275.477 252.802C277.927 257.088 285.831 239.634 285.831 239.634Z" fill="black"/>
<path opacity="0.1" d="M270.899 255.61C270.899 255.61 257.345 273.745 258.134 275.116C258.923 276.487 262.652 281.364 262.452 277.707C262.252 274.051 270.899 255.61 270.899 255.61Z" fill="black"/>
<path opacity="0.1" d="M276.232 258.805C276.232 258.805 272.828 270.309 269.453 275.131C266.078 279.952 276.232 258.805 276.232 258.805Z" fill="black"/>
<path opacity="0.1" d="M317.827 224.027C315.379 227.652 311.893 230.752 307.659 233.066C303.425 235.38 298.567 236.841 293.491 237.328H293.431C285.446 238.085 277.401 236.384 270.899 232.563C278.334 230.393 287.86 227.783 287.86 227.783C287.86 227.783 289.52 226.834 291.191 229.672L316.181 220.463C316.462 221.721 317.019 222.928 317.827 224.027V224.027Z" fill="black"/>
<path d="M322.093 209.794C322.102 214.429 320.626 218.985 317.813 223.008C316.468 224.926 314.84 226.7 312.963 228.291C307.729 232.752 300.753 235.574 293.244 236.27H293.179C291.979 236.383 290.772 236.439 289.564 236.439C281.571 236.439 273.858 234.031 267.896 229.674C261.935 225.317 258.142 219.315 257.241 212.815C257.101 211.818 257.032 210.815 257.034 209.811C257.034 202.75 260.462 195.978 266.562 190.985C272.662 185.992 280.936 183.187 289.564 183.187C298.191 183.187 306.465 185.992 312.565 190.985C318.666 195.978 322.093 202.75 322.093 209.811V209.794Z" fill="#EE8E9E"/>
<path opacity="0.1" d="M342.484 260.134L345.537 256.411C345.537 256.411 362.261 240.192 378.619 250.542L378.049 264.755C378.049 264.755 377.285 269.077 376.145 271.373C375.818 272.054 375.699 272.79 375.798 273.517C375.897 274.244 376.212 274.941 376.715 275.547C376.715 275.547 377.667 279.27 376.339 279.27C375.01 279.27 372.725 284.829 372.725 284.829C372.725 284.829 369.493 290.546 371.397 293.172C373.3 295.799 377.479 304.602 377.479 304.602C377.479 304.602 370.827 301.359 368.923 295.952C368.923 295.952 352.769 285.756 340.224 292.229L342.484 260.134Z" fill="black"/>
<path opacity="0.1" d="M377.552 248.756C377.4 254.145 376.275 256.471 376.275 256.471L347.692 259.87L346.623 254.077C350.364 251.031 363.968 241.345 377.552 248.756Z" fill="black"/>
<path d="M342.484 259.069L345.537 255.346C345.537 255.346 362.261 239.127 378.619 249.477L378.049 263.69C378.049 263.69 377.285 268.012 376.145 270.308C375.818 270.989 375.699 271.725 375.798 272.452C375.897 273.179 376.212 273.875 376.715 274.482C376.715 274.482 377.667 278.205 376.339 278.205C375.01 278.205 372.725 283.764 372.725 283.764C372.725 283.764 369.493 289.481 371.397 292.107C373.3 294.734 377.479 303.537 377.479 303.537C377.479 303.537 370.827 300.294 368.923 294.887C368.923 294.887 352.769 284.691 340.224 291.164L342.484 259.069Z" fill="#DFE5EE"/>
<path opacity="0.1" d="M369.02 249.22C369.02 249.22 342.175 262.838 343.469 274.78C343.469 274.78 358.468 252.89 369.02 249.22Z" fill="black"/>
<path opacity="0.1" d="M345.732 261.427L345.863 280.072C340.737 280.26 335.907 279.716 332.087 277C329.429 275.108 327.883 272.495 327.082 269.668C326.486 267.391 326.267 265.059 326.431 262.734C326.428 262.711 326.428 262.687 326.431 262.664C326.746 257.516 328.193 252.367 327.432 247.251C326.671 242.136 322.882 236.737 316.695 235.66C315.474 235.443 314.102 235.365 313.231 234.632C312.27 233.813 312.315 232.539 312.421 231.404L312.601 229.491C312.646 229 312.666 228.513 312.666 228.025C312.662 223.677 310.814 219.464 307.436 216.107C304.058 212.749 299.36 210.456 294.145 209.618L293.945 209.589C292.203 209.303 290.391 209.02 288.649 209.348C285.336 209.974 283.193 212.604 280.14 213.853C274.283 216.245 264.518 213.628 258.386 212.805C257.985 212.751 257.605 212.69 257.24 212.62C257.1 211.629 257.032 210.632 257.034 209.634C257.037 205.582 258.177 201.584 260.366 197.949C262.556 194.313 265.737 191.139 269.663 188.669C273.59 186.199 278.157 184.5 283.014 183.703C287.87 182.907 292.884 183.033 297.671 184.074C302.458 185.114 306.889 187.04 310.621 189.704C314.354 192.367 317.29 195.697 319.201 199.436C321.112 203.174 321.948 207.222 321.645 211.267C321.342 215.313 319.907 219.247 317.451 222.766C317.546 222.922 317.651 223.077 317.761 223.225C324.564 232.441 346.378 226.612 346.378 226.612L347.69 259.498L345.732 261.427Z" fill="black"/>
<path d="M281.347 214.076C284.399 212.827 286.554 210.206 289.908 209.585C291.656 209.259 293.479 209.541 295.242 209.822L295.443 209.855C300.99 210.745 305.942 213.253 309.361 216.904C312.779 220.555 314.427 225.096 313.991 229.666L313.81 231.572C313.699 232.699 313.654 233.976 314.631 234.785C315.502 235.515 316.882 235.601 318.111 235.805C324.336 236.883 328.148 242.235 328.914 247.362C329.679 252.489 328.199 257.637 327.906 262.788C327.614 267.94 328.783 273.626 333.587 277.011C341.142 282.317 352.624 279.297 362.621 278.811C358.199 278.811 354.885 275.112 354.644 271.536C354.402 267.96 356.366 264.556 358.245 261.331C360.123 258.106 362.007 254.636 361.589 251.068C361.014 246.17 356.25 242.247 354.427 237.532C352.302 232.046 354.352 226.155 355.313 220.452C357.121 209.773 354.306 197.751 344.108 190.848C339.837 187.962 334.615 186.186 329.921 183.77C321.51 179.447 314.878 173.107 306.377 168.903C297.876 164.698 285.94 163.139 278.521 168.527C275.651 170.613 273.797 173.507 270.846 175.52C265.08 179.459 255.914 179.533 251.291 184.366C247.312 188.526 248.39 194.432 249.664 199.596C251.361 206.483 250.404 211.843 259.484 213.068C265.629 213.855 275.449 216.464 281.347 214.076Z" fill="#603556"/>
<path opacity="0.1" d="M356.202 275.501C348.926 276.228 341.716 276.601 336.419 272.859C331.616 269.458 330.433 263.747 330.74 258.565C331.047 253.383 332.517 248.205 331.747 243.056C330.977 237.907 327.17 232.528 320.947 231.445C319.719 231.232 318.344 231.154 317.468 230.419C316.497 229.599 316.537 228.319 316.648 227.186L316.829 225.27C317.264 220.677 315.617 216.114 312.199 212.445C308.781 208.776 303.831 206.256 298.285 205.363L298.084 205.33C296.322 205.047 294.499 204.764 292.752 205.092C289.419 205.72 287.264 208.374 284.193 209.605C278.297 212.006 268.484 209.384 262.306 208.559C253.243 207.349 254.19 201.954 252.488 195.02C251.537 191.147 250.696 186.855 251.985 183.187C251.743 183.396 251.511 183.597 251.29 183.848C247.312 188.028 248.39 193.965 249.664 199.155C251.36 206.077 250.404 211.464 259.482 212.695C265.654 213.515 275.472 216.141 281.368 213.741C284.419 212.486 286.574 209.852 289.927 209.228C291.675 208.9 293.497 209.183 295.259 209.466L295.461 209.499C301.007 210.393 305.957 212.914 309.375 216.583C312.792 220.253 314.44 224.817 314.004 229.41L313.823 231.326C313.712 232.458 313.667 233.743 314.644 234.555C315.515 235.289 316.894 235.375 318.123 235.581C324.346 236.664 328.157 242.043 328.923 247.196C329.688 252.349 328.213 257.523 327.916 262.701C327.619 267.878 328.792 273.594 333.595 276.995C341.147 282.329 352.627 279.293 362.621 278.804C359.907 278.817 357.626 277.413 356.202 275.501Z" fill="black"/>
<path d="M152.817 289.523L183.737 280.255C184.468 280.036 185.277 280.059 185.987 280.319C186.697 280.578 187.25 281.054 187.524 281.641V281.641C187.797 282.228 187.768 282.879 187.445 283.449C187.121 284.02 186.529 284.464 185.798 284.683L154.878 293.951L148.248 293.419L152.817 289.523Z" fill="#5C5C8E"/>
<path opacity="0.1" d="M186.611 280.523C186.884 281.127 186.854 281.794 186.53 282.38C186.205 282.965 185.612 283.421 184.881 283.646L153.94 293.19L148.965 292.777L148.248 293.405L154.878 293.951L185.798 284.44C186.529 284.214 187.121 283.758 187.445 283.173C187.768 282.587 187.797 281.92 187.524 281.317V281.317C187.296 280.815 186.873 280.389 186.32 280.106C186.431 280.238 186.529 280.378 186.611 280.523V280.523Z" fill="white"/>
<path d="M153.022 268.595L155.069 274.066L149.655 273.523L148.471 273.404L150.09 271.691L153.022 268.595Z" fill="#EFC8C4"/>
<path d="M150.085 271.676C150.211 271.771 150.319 271.887 150.404 272.02C150.455 272.1 150.482 272.192 150.482 272.286C150.482 272.381 150.455 272.473 150.404 272.553C150.319 272.64 150.22 272.713 150.11 272.767C149.986 272.849 149.882 272.958 149.806 273.085C149.73 273.213 149.684 273.356 149.67 273.503L148.481 273.389L150.085 271.676Z" fill="#727A9C"/>
<path d="M250.134 318.278C250.134 318.278 276.607 313.666 321.026 319.512L303.625 308.914L271.967 303.537L249.569 308.474L250.134 318.278Z" fill="white"/>
<path opacity="0.1" d="M250.134 318.278C250.134 318.278 276.607 313.666 321.026 319.512L303.625 308.914L271.967 303.537L249.569 308.474L250.134 318.278Z" fill="black"/>
<path d="M246.323 322.615C246.323 322.615 259.714 293.417 328.492 322.707L303.806 309.903C303.806 309.903 244.669 296.733 237.837 311.91L246.323 322.615Z" fill="white"/>
<path opacity="0.1" d="M246.354 323.193C246.354 323.193 259.74 291.033 328.492 323.772L303.816 309.464C303.816 309.464 244.682 293.238 237.837 310.221L246.354 323.193Z" fill="black"/>
<path d="M246.323 322.607C246.323 322.607 259.714 291.1 328.492 322.707L303.806 308.894C303.806 308.894 244.669 293.675 237.837 310.092L246.323 322.607Z" fill="white"/>
<path opacity="0.1" d="M246.341 323.224C246.341 323.224 259.729 287.565 328.492 323.772L303.792 307.945C303.792 307.945 244.668 291.684 237.837 310.45L246.341 323.224Z" fill="black"/>
<path d="M246.341 322.593C246.341 322.593 259.729 286.5 328.492 322.707L303.792 306.88C303.792 306.88 244.668 290.618 237.837 309.385L246.341 322.593Z" fill="white"/>
<path opacity="0.1" d="M527.537 17.7331C527.537 17.7331 505.415 27.6899 515.844 41.3257C515.844 41.3257 516.738 44.2381 519.775 44.1783C519.775 44.1783 519.23 43.0482 521.588 42.2915C522.426 42.0186 523.227 41.6459 523.975 41.1813C524.99 40.5583 525.773 39.6235 526.208 38.5179V38.5179C526.208 38.5179 530.923 32.8823 528.091 21.8353C528.091 21.8353 528.695 18.7835 528.336 18.2707L525.529 21.7058C525.529 21.7058 528.136 23.6574 528.306 26.3308C528.306 26.3308 525.729 21.7208 525.089 22.1987C524.959 22.2933 523.686 24.0855 523.686 24.0855C523.686 24.0855 528.181 27.5007 528.336 31.6377C528.336 31.6377 525.998 25.7334 523.191 24.7576L521.428 27.5754C521.428 27.5754 526.383 30.9557 526.712 35.6553C526.712 35.6553 524.055 29.5717 521.083 28.2176L519.72 31.2046C519.72 31.2046 524.49 34.5949 524.715 38.5079C524.715 38.5079 520.934 31.7871 519.435 31.9165C519.435 31.9165 518.351 34.7443 518.436 35.6354C518.436 35.6354 521.803 38.1246 521.743 40.4346C521.743 40.4346 518.746 36.2129 518.246 36.4519C518.246 36.4519 517.822 40.5142 518.701 42.6898C518.701 42.6898 517.168 39.5733 517.607 36.417C517.607 36.417 515.834 37.7711 515.365 39.6231C515.365 39.6231 514.555 37.3281 517.722 35.4313C517.722 35.4313 518.177 32.28 518.551 31.9066C518.551 31.9066 515.16 33.3354 513.651 35.2371C513.651 35.2371 514.326 32.3248 518.886 31.1001L520.184 28.0533C520.184 28.0533 515.604 29.7061 514.131 31.2992C514.131 31.2992 515.28 28.4317 520.574 27.3165L522.277 24.5386C522.277 24.5386 518.221 25.6686 516.199 27.0875C516.199 27.0875 517.842 24.658 522.797 23.7619L524.15 22.0394C524.15 22.0394 521.203 22.9156 520.379 23.2442C519.555 23.5727 519.38 23.3786 519.38 23.3786C520.933 22.2077 522.781 21.4906 524.72 21.3076C524.72 21.3076 527.716 17.9322 527.537 17.7331Z" fill="#B433FF"/>
</g>
<defs>
<linearGradient id="paint0_linear" x1="266.099" y1="314.178" x2="266.099" y2="162.936" gradientUnits="userSpaceOnUse">
<stop stop-color="#808080" stop-opacity="0.25"/>
<stop offset="0.54" stop-color="#808080" stop-opacity="0.12"/>
<stop offset="1" stop-color="#808080" stop-opacity="0.1"/>
</linearGradient>
<clipPath id="clip0">
<rect width="529" height="393" fill="white"/>
</clipPath>
</defs>
</svg>
